<?xml version="1.0" encoding="UTF-8" standalone="no"?>
<svg width="47px" height="586px" viewBox="0 0 47 586" version="1.1" xmlns="http://www.w3.org/2000/svg" xmlns:xlink="http://www.w3.org/1999/xlink">
    <!-- Generator: Sketch 49 (51002) - http://www.bohemiancoding.com/sketch -->
    <title>Artboard</title>
    <desc>Created with Sketch.</desc>
    <defs/>
    <g id="Artboard" stroke="none" stroke-width="1" fill="none" fill-rule="evenodd">
        <g id="合同" transform="translate(1.000000, 1.000000)" fill="#313333" fill-rule="nonzero">
            <path d="M13.4401183,9.6962543 C12.0260861,9.6962543 10.8815376,10.8408028 10.8815376,12.254835 C10.8815376,13.6688671 12.0260861,14.8134156 13.4401183,14.8134156 C14.8541504,14.8134156 15.9986989,13.6688671 15.9986989,12.254835 C15.995671,10.8408028 14.8511225,9.69625428 13.4401183,9.6962543 Z M14.705783,11.9278211 L14.1516762,12.4698163 C14.1335088,12.4879837 14.127453,12.5091791 14.1304809,12.5334023 L14.2606808,13.2934068 C14.2667366,13.3327695 14.2394855,13.3691044 14.2001227,13.3781881 C14.1849832,13.381216 14.1698437,13.3781881 14.1547041,13.3721323 L13.4703973,13.0118115 C13.449202,12.9996999 13.4249787,12.9996999 13.4037834,13.0118115 L12.7194766,13.3721323 C12.6831417,13.3902998 12.640751,13.3781881 12.6225836,13.3418533 C12.6165278,13.3267137 12.6134999,13.3115742 12.6165278,13.2964347 L12.7467278,12.5364302 C12.7497557,12.512207 12.7436999,12.4879838 12.7255324,12.4728442 L12.1714256,11.9338769 C12.1441745,11.9066258 12.1411466,11.8612072 12.1714256,11.8309281 C12.1835372,11.8188165 12.1986768,11.8127607 12.2138163,11.8097328 L12.9798766,11.6977002 C13.0040998,11.6946723 13.0252952,11.6795328 13.0343789,11.6583375 L13.3765322,10.964947 C13.3946997,10.9286121 13.4370904,10.9134726 13.4734252,10.9286121 C13.4885648,10.9346679 13.5006764,10.9467795 13.5097601,10.964947 L13.8519135,11.6583375 C13.8609972,11.6795328 13.8821926,11.6946724 13.9064158,11.6977002 L14.6724761,11.8097328 C14.7118388,11.8157886 14.73909,11.8521234 14.7330342,11.8914862 C14.7239505,11.9035979 14.7178946,11.9187374 14.705783,11.9278211 Z" id="Shape"/>
            <path d="M13.2766114,8.61226391 L13.2766114,1.2302288 C13.2766114,0.561061547 12.7346162,0.0190663493 12.0654489,0.0190663493 L1.22251709,0.0190663493 C0.553349837,0.0190663493 0.0113546391,0.561061547 0.0113546391,1.2302288 L0.0113546391,14.0836903 C0.0113546391,14.7528575 0.553349837,15.2948527 1.22251709,15.2948527 L11.4205049,15.2948527 C10.4001005,14.6196296 9.7824077,13.478109 9.78240768,12.2518071 C9.78543559,10.3018355 11.3236119,8.69401739 13.2766114,8.61226391 Z M2.89392126,3.71613972 L5.39497172,3.71613972 C5.7340972,3.71613972 6.01266457,3.99167917 6.01266457,4.33080466 C6.01266457,4.66993014 5.73712511,4.94849751 5.39799963,4.94849751 L2.89694917,4.94849751 C2.55782369,4.94849751 2.28228423,4.67295805 2.28228423,4.33080466 C2.27622843,3.99167917 2.55176789,3.71613972 2.89392126,3.71613972 Z M8.34718019,11.6008072 L2.89392126,11.6008072 C2.55479578,11.6008072 2.27925632,11.3252678 2.27925632,10.9861423 C2.27925632,10.6470168 2.55479578,10.3684494 2.89392126,10.3684494 L8.3502081,10.3684494 C8.68933359,10.3684494 8.96487305,10.6439889 8.96487305,10.9861423 C8.96487305,11.3252678 8.68933359,11.6008072 8.34718019,11.6008072 Z M9.06479394,8.09146405 L2.89392126,8.09146405 C2.55479578,8.09146405 2.27925632,7.8159246 2.27925632,7.47679911 C2.27925632,7.13767362 2.55479578,6.85910626 2.89392126,6.85910626 L9.06479394,6.85910626 C9.40391942,6.85910626 9.68248679,7.13464571 9.68248679,7.47679911 C9.68248679,7.8159246 9.40391942,8.09146405 9.06479394,8.09146405 Z" id="Shape"/>
        </g>
        <g id="mobile_phone_icon" transform="translate(4.000000, 19.000000)" fill="#313333">
            <path d="M8,0 L2,0 C0.896,0 0,0.896 0,2 L0,14 C0,15.104 0.896,16 2,16 L8,16 C9.104,16 10,15.104 10,14 L10,2 C10,0.896 9.104,0 8,0 Z M5,15 C4.448,15 4,14.553 4,14 C4,13.447 4.448,13 5,13 C5.552,13 6,13.447 6,14 C6,14.553 5.552,15 5,15 Z M8,12 L2,12 L2,2 L8,2 L8,12 Z" id="Shape"/>
        </g>
        <g id="message_remind_icon" transform="translate(2.000000, 36.000000)" fill="#2F3232" fill-rule="nonzero">
            <path d="M7,16 C8.304,16 9.403,15.163 9.816,14 L4.184,14 C4.597,15.163 5.696,16 7,16 Z M13.562,10.903 C12.661,10.173 12,9.887 12,9 L12,6 C12,3.791 10.024,1.517 8,1 C8,0.447 7.552,0 7,0 C6.448,0 6,0.447 6,1 C3.976,1.517 2,3.791 2,6 L2,9 C2,9.887 1.338,10.172 0.437,10.903 C-0.065,11.312 -0.146,12.057 0.259,12.567 C0.48,12.845 0.814,13.008 1.166,13.008 L12.834,13.008 C13.477,13.01 14,12.48 14,11.827 C14,11.468 13.839,11.128 13.562,10.903 Z" id="Shape"/>
        </g>
        <g id="电话-3" transform="translate(1.000000, 54.000000)" fill="#2F3232" fill-rule="nonzero">
            <path d="M10.9865419,4.94459259 C11.2101053,5.21073944 11.4496374,5.48220923 11.7051384,5.75900195 C11.9180559,6.00385705 12.1549266,6.27532684 12.4157505,6.57341131 C12.6765744,6.87149578 12.9453827,7.17490318 13.2221754,7.48363353 C13.5734893,7.88817674 13.8635893,8.25013645 14.0924756,8.56951267 C14.3213619,8.88888889 14.5023418,9.18165042 14.6354152,9.44779727 C14.7684886,9.71394412 14.8589786,9.95879922 14.906885,10.1823626 C14.9547914,10.4059259 14.9787446,10.6294893 14.9787446,10.8530526 L14.9787446,11.8910253 C14.9787446,12.2104016 14.9255153,12.4978402 14.8190565,12.7533411 C14.7125978,13.0088421 14.566217,13.229744 14.3799142,13.4160468 C14.1936114,13.6023496 13.980694,13.7460689 13.7411618,13.8472047 C13.5016296,13.9483405 13.2487901,13.9989084 12.9826433,13.9989084 L3.12988694,13.9989084 C2.84244834,13.9989084 2.56831709,13.9510019 2.30749318,13.8551891 C2.04666927,13.7593762 1.81778298,13.6236413 1.62083431,13.4479844 C1.42388564,13.2723275 1.266859,13.0620715 1.14975439,12.8172164 C1.03264977,12.5723613 0.974097466,12.2955686 0.974097466,11.9868382 L0.974097466,10.7572398 C0.974097466,10.5017388 0.998050682,10.2568837 1.04595712,10.0226745 C1.09386355,9.78846524 1.18169201,9.54361014 1.3094425,9.28810916 C1.43719298,9.03260819 1.6128499,8.75847693 1.83641326,8.4657154 C2.05997661,8.17295387 2.34209227,7.85091618 2.68276023,7.49960234 C2.95955296,7.20151787 3.24433008,6.90077193 3.53709162,6.59736452 C3.82985315,6.29395712 4.09333853,6.01982586 4.32754776,5.77497076 C4.60434048,5.48753216 4.87048733,5.21073944 5.1259883,4.94459259 L10.9865419,4.94459259 Z M7.98440546,10.9967719 C8.26119818,10.9967719 8.52202209,10.9435426 8.76687719,10.8370838 C9.01173229,10.7306251 9.22464977,10.5869058 9.40562963,10.4059259 C9.58660949,10.2249461 9.73032878,10.0093671 9.83678752,9.75918908 C9.94324626,9.50901105 9.99647563,9.24552567 9.99647563,8.96873294 C9.99647563,8.69194022 9.94324626,8.43111631 9.83678752,8.18626121 C9.73032878,7.94140611 9.58660949,7.72848863 9.40562963,7.54750877 C9.22464977,7.36652891 9.01173229,7.22280962 8.76687719,7.11635088 C8.52202209,7.00989214 8.26119818,6.95666277 7.98440546,6.95666277 C7.70761274,6.95666277 7.44412736,7.00989214 7.19394932,7.11635088 C6.94377128,7.22280962 6.72819233,7.36652891 6.54721248,7.54750877 C6.36623262,7.72848863 6.22251332,7.94140611 6.11605458,8.18626121 C6.00959584,8.43111631 5.95636647,8.69194022 5.95636647,8.96873294 C5.95636647,9.24552567 6.00959584,9.50901105 6.11605458,9.75918908 C6.22251332,10.0093671 6.36623262,10.2249461 6.54721248,10.4059259 C6.72819233,10.5869058 6.94377128,10.7306251 7.19394932,10.8370838 C7.44412736,10.9435426 7.70761274,10.9967719 7.98440546,10.9967719 Z M15.9847797,3.01236647 L15.9847797,4.01840156 C15.9847797,4.29519428 15.8863054,4.52940351 15.6893567,4.72102924 C15.4924081,4.91265497 15.2555374,5.00846784 14.9787446,5.00846784 L12.9826433,5.00846784 C12.7058506,5.00846784 12.4716413,4.91265497 12.2800156,4.72102924 C12.0883899,4.52940351 11.992577,4.29519428 11.992577,4.01840156 L11.992577,3.01236647 L3.99220273,3.01236647 L3.99220273,4.01840156 C3.99220273,4.29519428 3.89638986,4.52940351 3.70476413,4.72102924 C3.5131384,4.91265497 3.27892917,5.00846784 3.00213645,5.00846784 L1.00603509,5.00846784 C0.729242365,5.00846784 0.49237167,4.91265497 0.295423002,4.72102924 C0.098474334,4.52940351 -1.13723773e-13,4.29519428 -1.13686838e-13,4.01840156 L-1.13686838e-13,3.01236647 L-1.13686838e-13,2.98042885 C-1.13686838e-13,2.85267836 0.0319376218,2.74355815 0.0958128655,2.65306823 C0.159688109,2.5625783 0.239532164,2.48007277 0.335345029,2.40555166 C0.431157895,2.33103054 0.537616634,2.26449383 0.654721248,2.20594152 C0.771825861,2.14738921 0.888930474,2.0808525 1.00603509,2.00633138 C1.1231397,1.94245614 1.38662508,1.80139831 1.79649123,1.58315789 C2.20635737,1.36491748 2.72268226,1.13869266 3.34546589,0.904483431 C3.96824951,0.670274204 4.67620013,0.462679662 5.46931774,0.281699805 C6.26243535,0.100719948 7.10612086,0.0102300195 8.00037427,0.0102300195 C9.02237817,0.0102300195 9.93526186,0.100719948 10.7390253,0.281699805 C11.5427888,0.462679662 12.2400936,0.670274204 12.8309396,0.904483431 C13.4217856,1.13869266 13.895527,1.36491748 14.2521637,1.58315789 C14.6088005,1.80139831 14.8509942,1.94245614 14.9787446,2.00633138 C15.1064951,2.0808525 15.2289227,2.14738921 15.3460273,2.20594152 C15.4631319,2.26449383 15.5695906,2.33103054 15.6654035,2.40555166 C15.7612164,2.48007277 15.838399,2.5625783 15.8969513,2.65306823 C15.9555036,2.74355815 15.9847797,2.85267836 15.9847797,2.98042885 L15.9847797,3.01236647 Z" id="Shape"/>
        </g>
        <g id="用户" transform="translate(1.000000, 70.000000)" fill="#2F3232" fill-rule="nonzero">
            <path d="M12.5154387,11.4262879 C10.4237341,10.6632352 9.75473654,10.0206878 9.75473654,8.64329546 C9.75473654,7.81613037 10.3929904,8.08614972 10.6740659,6.57201248 C10.7901889,5.94399167 11.355143,6.56180165 11.4627013,5.1280162 C11.4627013,4.5571893 11.1551533,4.41539465 11.1551533,4.41539465 C11.1551533,4.41539465 11.3114967,3.56943187 11.372161,2.91834217 C11.4490202,2.10743874 10.9039317,0.0122638043 8.0003448,0.0122638043 C5.09611283,0.0122638043 4.55097983,2.10743876 4.62708265,2.91834217 C4.68852552,3.56943187 4.84582548,4.41539465 4.84582548,4.41539465 C4.84582548,4.41539465 4.53729865,4.55721154 4.53729865,5.1280162 C4.64492376,6.56180165 5.2097443,5.94399165 5.32600078,6.57201248 C5.60623096,8.08614972 6.24535241,7.81613035 6.24535241,8.64329546 C6.24535241,10.0206878 5.57635487,10.6632352 3.4836492,11.4262879 C1.38518187,12.1910313 0.021359413,12.9711466 0.021359413,13.5026207 C0.021359413,14.0349401 0.021359413,15.2893355 0.021359413,15.2893355 L8.00032254,15.2893355 L15.9785961,15.2893355 C15.9785961,15.2893355 15.9785961,14.0349401 15.9785961,13.5026207 C15.9785961,12.9711466 14.6148848,12.1910313 12.5154387,11.4262879 Z" id="Shape"/>
        </g>
        <polygon id="Path-2" fill="#A4A4A4" points="8 105 8 110 3 110"/>
        <g id="关--闭" transform="translate(3.000000, 111.000000)" fill="#FFFFFF" fill-rule="nonzero">
            <path d="M4.62117443,3.9980564 L7.87401083,0.741691974 C8.03820585,0.577318872 8.03820585,0.30632538 7.87401083,0.141952278 L7.85626002,0.124182213 C7.69206501,-0.0401908894 7.42136511,-0.0401908894 7.2571701,0.124182213 L4.00433369,3.38498915 L0.751497291,0.124182213 C0.587302275,-0.0401908894 0.316602384,-0.0401908894 0.152407367,0.124182213 L0.134656555,0.141952278 C-0.0339761647,0.30632538 -0.0339761647,0.577318872 0.134656555,0.741691974 L3.38749296,3.9980564 L0.134656555,7.25442082 C-0.0295384615,7.41879393 -0.0295384615,7.68978742 0.134656555,7.85416052 L0.152407367,7.87193059 C0.316602384,8.03630369 0.587302275,8.03630369 0.751497291,7.87193059 L4.00433369,4.61556616 L7.2571701,7.87193059 C7.42136511,8.03630369 7.69206501,8.03630369 7.85626002,7.87193059 L7.87401083,7.85416052 C8.03820585,7.68978742 8.03820585,7.41879393 7.87401083,7.25442082 L4.62117443,3.9980564 Z" id="Shape"/>
        </g>
        <g id="icon_manual" transform="translate(2.000000, 87.000000)" fill="#2F3232">
            <path d="M14,13 L14,0 L8,0 L8,10 L6,6 L4,10 L4,0 L2,0 C0.896,0 0,0.896 0,2 L0,14 C0,15.104 0.896,16 2,16 L14,16 L14,15 L2,15 L2,13 L14,13 Z" id="Shape"/>
        </g>
        <g id="arrow" transform="translate(5.000000, 196.000000)" fill-rule="nonzero">
            <g id="向右" transform="translate(5.500000, 30.000000) scale(-1, 1) translate(-5.500000, -30.000000) translate(0.000000, 20.000000)" fill="#258FF1">
                <path d="M0.687247895,0 C0.849198012,0 1.00883456,0.0576854671 1.14070822,0.177863523 L10.7883081,9.48445221 C11.070564,9.76566886 11.070564,10.2343633 10.7883081,10.5155799 L1.14070822,19.8221686 C0.858452305,20.0817532 0.421186988,20.0553141 0.171321093,19.7548689 C-0.0808583748,19.4568273 -0.0507819245,19.0073614 0.23610114,18.7477768 L9.21507835,9.99881429 L0.23610114,1.25225535 C-0.0507819245,0.992670746 -0.0785448017,0.543204815 0.171321093,0.245163235 C0.305508333,0.0817210784 0.497534901,0 0.687247895,0 Z" id="Shape"/>
            </g>
            <g id="向右-copy-2" transform="translate(0.000000, 60.000000)" fill="#258FF1">
                <path d="M0.687247895,0 C0.849198012,0 1.00883456,0.0576854671 1.14070822,0.177863523 L10.7883081,9.48445221 C11.070564,9.76566886 11.070564,10.2343633 10.7883081,10.5155799 L1.14070822,19.8221686 C0.858452305,20.0817532 0.421186988,20.0553141 0.171321093,19.7548689 C-0.0808583748,19.4568273 -0.0507819245,19.0073614 0.23610114,18.7477768 L9.21507835,9.99881429 L0.23610114,1.25225535 C-0.0507819245,0.992670746 -0.0785448017,0.543204815 0.171321093,0.245163235 C0.305508333,0.0817210784 0.497534901,0 0.687247895,0 Z" id="Shape"/>
            </g>
            <g id="向右-copy" transform="translate(5.500000, 10.000000) scale(-1, 1) translate(-5.500000, -10.000000) " fill="#C2C2C2">
                <path d="M0.687247895,0 C0.849198012,0 1.00883456,0.0576854671 1.14070822,0.177863523 L10.7883081,9.48445221 C11.070564,9.76566886 11.070564,10.2343633 10.7883081,10.5155799 L1.14070822,19.8221686 C0.858452305,20.0817532 0.421186988,20.0553141 0.171321093,19.7548689 C-0.0808583748,19.4568273 -0.0507819245,19.0073614 0.23610114,18.7477768 L9.21507835,9.99881429 L0.23610114,1.25225535 C-0.0507819245,0.992670746 -0.0785448017,0.543204815 0.171321093,0.245163235 C0.305508333,0.0817210784 0.497534901,0 0.687247895,0 Z" id="Shape"/>
            </g>
            <g id="向右-copy-3" transform="translate(0.000000, 40.000000)" fill="#C2C2C2">
                <path d="M0.687247895,0 C0.849198012,0 1.00883456,0.0576854671 1.14070822,0.177863523 L10.7883081,9.48445221 C11.070564,9.76566886 11.070564,10.2343633 10.7883081,10.5155799 L1.14070822,19.8221686 C0.858452305,20.0817532 0.421186988,20.0553141 0.171321093,19.7548689 C-0.0808583748,19.4568273 -0.0507819245,19.0073614 0.23610114,18.7477768 L9.21507835,9.99881429 L0.23610114,1.25225535 C-0.0507819245,0.992670746 -0.0785448017,0.543204815 0.171321093,0.245163235 C0.305508333,0.0817210784 0.497534901,0 0.687247895,0 Z" id="Shape"/>
            </g>
            <g id="省略号（导）" transform="translate(4.000000, 84.000000)" fill="#AAAAAA">
                <path d="M1.5,2.99977748 C2.32883317,2.99977748 3,2.32866044 3,1.49988874 C3,0.671117045 2.32738669,0 1.5,0 C0.672613308,0 0,0.671117045 0,1.49988874 C0,2.32866044 0.671166827,2.99977748 1.5,2.99977748 Z M1.5,5.00011126 C0.671166827,5.00011126 0,5.6712283 0,6.5 C0,7.3287717 0.671166827,7.99988874 1.5,7.99988874 C2.32883317,7.99988874 3,7.3287717 3,6.5 C3,5.6712283 2.32738669,5.00011126 1.5,5.00011126 Z M1.5,10.0002225 C0.671166827,10.0002225 0,10.6713396 0,11.5001113 C0,12.328883 0.671166827,13 1.5,13 C2.32883317,13 3,12.328883 3,11.5001113 C3,10.6713396 2.32738669,10.0002225 1.5,10.0002225 Z" id="Shape"/>
            </g>
            <g id="省略号（导）-copy" transform="translate(4.000000, 104.000000)" fill="#2F94F2">
                <path d="M1.5,2.99977748 C2.32883317,2.99977748 3,2.32866044 3,1.49988874 C3,0.671117045 2.32738669,0 1.5,0 C0.672613308,0 0,0.671117045 0,1.49988874 C0,2.32866044 0.671166827,2.99977748 1.5,2.99977748 Z M1.5,5.00011126 C0.671166827,5.00011126 0,5.6712283 0,6.5 C0,7.3287717 0.671166827,7.99988874 1.5,7.99988874 C2.32883317,7.99988874 3,7.3287717 3,6.5 C3,5.6712283 2.32738669,5.00011126 1.5,5.00011126 Z M1.5,10.0002225 C0.671166827,10.0002225 0,10.6713396 0,11.5001113 C0,12.328883 0.671166827,13 1.5,13 C2.32883317,13 3,12.328883 3,11.5001113 C3,10.6713396 2.32738669,10.0002225 1.5,10.0002225 Z" id="Shape"/>
            </g>
        </g>
        <g id="arrow-copy" transform="translate(20.000000, 196.000000)" fill-rule="nonzero">
            <g id="向右" transform="translate(5.500000, 30.000000) scale(-1, 1) translate(-5.500000, -30.000000) translate(0.000000, 20.000000)" fill="#14ACC3">
                <path d="M0.687247895,0 C0.849198012,0 1.00883456,0.0576854671 1.14070822,0.177863523 L10.7883081,9.48445221 C11.070564,9.76566886 11.070564,10.2343633 10.7883081,10.5155799 L1.14070822,19.8221686 C0.858452305,20.0817532 0.421186988,20.0553141 0.171321093,19.7548689 C-0.0808583748,19.4568273 -0.0507819245,19.0073614 0.23610114,18.7477768 L9.21507835,9.99881429 L0.23610114,1.25225535 C-0.0507819245,0.992670746 -0.0785448017,0.543204815 0.171321093,0.245163235 C0.305508333,0.0817210784 0.497534901,0 0.687247895,0 Z" id="Shape"/>
            </g>
            <g id="向右-copy-2" transform="translate(0.000000, 60.000000)" fill="#14ACC3">
                <path d="M0.687247895,0 C0.849198012,0 1.00883456,0.0576854671 1.14070822,0.177863523 L10.7883081,9.48445221 C11.070564,9.76566886 11.070564,10.2343633 10.7883081,10.5155799 L1.14070822,19.8221686 C0.858452305,20.0817532 0.421186988,20.0553141 0.171321093,19.7548689 C-0.0808583748,19.4568273 -0.0507819245,19.0073614 0.23610114,18.7477768 L9.21507835,9.99881429 L0.23610114,1.25225535 C-0.0507819245,0.992670746 -0.0785448017,0.543204815 0.171321093,0.245163235 C0.305508333,0.0817210784 0.497534901,0 0.687247895,0 Z" id="Shape"/>
            </g>
            <g id="向右-copy" transform="translate(5.500000, 10.000000) scale(-1, 1) translate(-5.500000, -10.000000) " fill="#C2C2C2">
                <path d="M0.687247895,0 C0.849198012,0 1.00883456,0.0576854671 1.14070822,0.177863523 L10.7883081,9.48445221 C11.070564,9.76566886 11.070564,10.2343633 10.7883081,10.5155799 L1.14070822,19.8221686 C0.858452305,20.0817532 0.421186988,20.0553141 0.171321093,19.7548689 C-0.0808583748,19.4568273 -0.0507819245,19.0073614 0.23610114,18.7477768 L9.21507835,9.99881429 L0.23610114,1.25225535 C-0.0507819245,0.992670746 -0.0785448017,0.543204815 0.171321093,0.245163235 C0.305508333,0.0817210784 0.497534901,0 0.687247895,0 Z" id="Shape"/>
            </g>
            <g id="向右-copy-3" transform="translate(0.000000, 40.000000)" fill="#C2C2C2">
                <path d="M0.687247895,0 C0.849198012,0 1.00883456,0.0576854671 1.14070822,0.177863523 L10.7883081,9.48445221 C11.070564,9.76566886 11.070564,10.2343633 10.7883081,10.5155799 L1.14070822,19.8221686 C0.858452305,20.0817532 0.421186988,20.0553141 0.171321093,19.7548689 C-0.0808583748,19.4568273 -0.0507819245,19.0073614 0.23610114,18.7477768 L9.21507835,9.99881429 L0.23610114,1.25225535 C-0.0507819245,0.992670746 -0.0785448017,0.543204815 0.171321093,0.245163235 C0.305508333,0.0817210784 0.497534901,0 0.687247895,0 Z" id="Shape"/>
            </g>
            <g id="省略号（导）" transform="translate(4.000000, 84.000000)" fill="#AAAAAA">
                <path d="M1.5,2.99977748 C2.32883317,2.99977748 3,2.32866044 3,1.49988874 C3,0.671117045 2.32738669,0 1.5,0 C0.672613308,0 0,0.671117045 0,1.49988874 C0,2.32866044 0.671166827,2.99977748 1.5,2.99977748 Z M1.5,5.00011126 C0.671166827,5.00011126 0,5.6712283 0,6.5 C0,7.3287717 0.671166827,7.99988874 1.5,7.99988874 C2.32883317,7.99988874 3,7.3287717 3,6.5 C3,5.6712283 2.32738669,5.00011126 1.5,5.00011126 Z M1.5,10.0002225 C0.671166827,10.0002225 0,10.6713396 0,11.5001113 C0,12.328883 0.671166827,13 1.5,13 C2.32883317,13 3,12.328883 3,11.5001113 C3,10.6713396 2.32738669,10.0002225 1.5,10.0002225 Z" id="Shape"/>
            </g>
            <g id="省略号（导）-copy" transform="translate(4.000000, 104.000000)" fill="#14ACC3">
                <path d="M1.5,2.99977748 C2.32883317,2.99977748 3,2.32866044 3,1.49988874 C3,0.671117045 2.32738669,0 1.5,0 C0.672613308,0 0,0.671117045 0,1.49988874 C0,2.32866044 0.671166827,2.99977748 1.5,2.99977748 Z M1.5,5.00011126 C0.671166827,5.00011126 0,5.6712283 0,6.5 C0,7.3287717 0.671166827,7.99988874 1.5,7.99988874 C2.32883317,7.99988874 3,7.3287717 3,6.5 C3,5.6712283 2.32738669,5.00011126 1.5,5.00011126 Z M1.5,10.0002225 C0.671166827,10.0002225 0,10.6713396 0,11.5001113 C0,12.328883 0.671166827,13 1.5,13 C2.32883317,13 3,12.328883 3,11.5001113 C3,10.6713396 2.32738669,10.0002225 1.5,10.0002225 Z" id="Shape"/>
            </g>
        </g>
        <g id="arrow-copy-2" transform="translate(34.000000, 196.000000)" fill-rule="nonzero">
            <g id="向右" transform="translate(5.500000, 30.000000) scale(-1, 1) translate(-5.500000, -30.000000) translate(0.000000, 20.000000)" fill="#EA984F">
                <path d="M0.687247895,0 C0.849198012,0 1.00883456,0.0576854671 1.14070822,0.177863523 L10.7883081,9.48445221 C11.070564,9.76566886 11.070564,10.2343633 10.7883081,10.5155799 L1.14070822,19.8221686 C0.858452305,20.0817532 0.421186988,20.0553141 0.171321093,19.7548689 C-0.0808583748,19.4568273 -0.0507819245,19.0073614 0.23610114,18.7477768 L9.21507835,9.99881429 L0.23610114,1.25225535 C-0.0507819245,0.992670746 -0.0785448017,0.543204815 0.171321093,0.245163235 C0.305508333,0.0817210784 0.497534901,0 0.687247895,0 Z" id="Shape"/>
            </g>
            <g id="向右-copy-2" transform="translate(0.000000, 60.000000)" fill="#EA984F">
                <path d="M0.687247895,0 C0.849198012,0 1.00883456,0.0576854671 1.14070822,0.177863523 L10.7883081,9.48445221 C11.070564,9.76566886 11.070564,10.2343633 10.7883081,10.5155799 L1.14070822,19.8221686 C0.858452305,20.0817532 0.421186988,20.0553141 0.171321093,19.7548689 C-0.0808583748,19.4568273 -0.0507819245,19.0073614 0.23610114,18.7477768 L9.21507835,9.99881429 L0.23610114,1.25225535 C-0.0507819245,0.992670746 -0.0785448017,0.543204815 0.171321093,0.245163235 C0.305508333,0.0817210784 0.497534901,0 0.687247895,0 Z" id="Shape"/>
            </g>
            <g id="向右-copy" transform="translate(5.500000, 10.000000) scale(-1, 1) translate(-5.500000, -10.000000) " fill="#C2C2C2">
                <path d="M0.687247895,0 C0.849198012,0 1.00883456,0.0576854671 1.14070822,0.177863523 L10.7883081,9.48445221 C11.070564,9.76566886 11.070564,10.2343633 10.7883081,10.5155799 L1.14070822,19.8221686 C0.858452305,20.0817532 0.421186988,20.0553141 0.171321093,19.7548689 C-0.0808583748,19.4568273 -0.0507819245,19.0073614 0.23610114,18.7477768 L9.21507835,9.99881429 L0.23610114,1.25225535 C-0.0507819245,0.992670746 -0.0785448017,0.543204815 0.171321093,0.245163235 C0.305508333,0.0817210784 0.497534901,0 0.687247895,0 Z" id="Shape"/>
            </g>
            <g id="向右-copy-3" transform="translate(0.000000, 40.000000)" fill="#C2C2C2">
                <path d="M0.687247895,0 C0.849198012,0 1.00883456,0.0576854671 1.14070822,0.177863523 L10.7883081,9.48445221 C11.070564,9.76566886 11.070564,10.2343633 10.7883081,10.5155799 L1.14070822,19.8221686 C0.858452305,20.0817532 0.421186988,20.0553141 0.171321093,19.7548689 C-0.0808583748,19.4568273 -0.0507819245,19.0073614 0.23610114,18.7477768 L9.21507835,9.99881429 L0.23610114,1.25225535 C-0.0507819245,0.992670746 -0.0785448017,0.543204815 0.171321093,0.245163235 C0.305508333,0.0817210784 0.497534901,0 0.687247895,0 Z" id="Shape"/>
            </g>
            <g id="省略号（导）" transform="translate(4.000000, 84.000000)" fill="#AAAAAA">
                <path d="M1.5,2.99977748 C2.32883317,2.99977748 3,2.32866044 3,1.49988874 C3,0.671117045 2.32738669,0 1.5,0 C0.672613308,0 0,0.671117045 0,1.49988874 C0,2.32866044 0.671166827,2.99977748 1.5,2.99977748 Z M1.5,5.00011126 C0.671166827,5.00011126 0,5.6712283 0,6.5 C0,7.3287717 0.671166827,7.99988874 1.5,7.99988874 C2.32883317,7.99988874 3,7.3287717 3,6.5 C3,5.6712283 2.32738669,5.00011126 1.5,5.00011126 Z M1.5,10.0002225 C0.671166827,10.0002225 0,10.6713396 0,11.5001113 C0,12.328883 0.671166827,13 1.5,13 C2.32883317,13 3,12.328883 3,11.5001113 C3,10.6713396 2.32738669,10.0002225 1.5,10.0002225 Z" id="Shape"/>
            </g>
            <g id="省略号（导）-copy" transform="translate(4.000000, 104.000000)" fill="#EA984F">
                <path d="M1.5,2.99977748 C2.32883317,2.99977748 3,2.32866044 3,1.49988874 C3,0.671117045 2.32738669,0 1.5,0 C0.672613308,0 0,0.671117045 0,1.49988874 C0,2.32866044 0.671166827,2.99977748 1.5,2.99977748 Z M1.5,5.00011126 C0.671166827,5.00011126 0,5.6712283 0,6.5 C0,7.3287717 0.671166827,7.99988874 1.5,7.99988874 C2.32883317,7.99988874 3,7.3287717 3,6.5 C3,5.6712283 2.32738669,5.00011126 1.5,5.00011126 Z M1.5,10.0002225 C0.671166827,10.0002225 0,10.6713396 0,11.5001113 C0,12.328883 0.671166827,13 1.5,13 C2.32883317,13 3,12.328883 3,11.5001113 C3,10.6713396 2.32738669,10.0002225 1.5,10.0002225 Z" id="Shape"/>
            </g>
        </g>
        <g id="菜单" transform="translate(9.000000, 317.000000)" fill="#A4A4A4" fill-rule="nonzero">
            <path d="M0,0 L15,0 L15,0.931034473 L0,0.931034473 L0,0 Z M0,4.03448276 L15,4.03448276 L15,4.96551724 L0,4.96551724 L0,4.03448276 Z M0,8.06896553 L15,8.06896553 L15,9 L0,9 L0,8.06896553 Z" id="Shape"/>
        </g>
        <g id="右上角-修改密码" transform="translate(2.000000, 331.000000)" fill="#323333">
            <path d="M12,6 L4,6 L4,5 C4,3.343 5.343,2 7,2 C8.304,2 9.403,2.837 9.816,4 L9.853,4 C9.853,4.003 9.852,4.005 9.852,4.008 C9.852,4.561 10.3,5.008 10.852,5.008 C11.404,5.008 11.852,4.561 11.852,4.008 C11.852,4.005 11.851,4.003 11.851,4 L11.9,4 C11.436,1.718 9.419,0 7,0 C4.239,0 2,2.238 2,5 L2,6 C0.896,6 0,6.896 0,8 L0,14 C0,15.104 0.896,16 2,16 L12,16 C13.104,16 14,15.104 14,14 L14,8 C14,6.896 13.104,6 12,6 Z M8,11.723 L8,13 C8,13.553 7.552,14 7,14 C6.448,14 6,13.553 6,13 L6,11.723 C5.405,11.376 5,10.738 5,10 C5,8.896 5.896,8 7,8 C8.104,8 9,8.896 9,10 C9,10.738 8.595,11.376 8,11.723 Z" id="Shape"/>
        </g>
        <g id="右上角-诊所中心" transform="translate(1.000000, 350.000000)" fill="#323333" fill-rule="nonzero">
            <path d="M9.664,1.566 C9.202,0.621 8.066,0.231 7.125,0.696 L7.091,0.713 C6.151,1.177 5.764,2.32 6.226,3.264 L7.416,5.699 C7.43,6.63 7.33,7.556 7.014,8.48 L3.633,1.566 C3.171,0.621 2.034,0.231 1.094,0.696 L1.061,0.713 C0.12,1.177 -0.267,2.32 0.195,3.264 L3.702,10.434 C4.164,11.379 5.3,11.769 6.24,11.304 L6.275,11.287 C6.458,11.197 6.619,11.08 6.757,10.945 C7.231,10.516 7.953,9.573 8.363,7.635 L9.733,10.434 C10.195,11.379 11.331,11.769 12.271,11.304 L12.305,11.287 C13.245,10.823 13.632,9.68 13.17,8.736 L9.664,1.566 Z M14.05,0.5 C12.973,0.5 12.1,1.377 12.1,2.46 C12.1,2.676 12.178,2.985 12.302,3.343 C12.407,3.647 12.535,3.942 12.677,4.23 L14.022,6.972 C14.027,6.983 14.039,6.99 14.051,6.99 C14.063,6.99 14.074,6.983 14.08,6.972 L15.425,4.23 C15.566,3.941 15.694,3.647 15.799,3.343 C15.922,2.985 16,2.676 16,2.46 C16,1.377 15.127,0.5 14.05,0.5 Z M15.571,2.566 C15.571,2.831 15.357,3.046 15.093,3.046 L14.532,3.046 L14.532,3.61 C14.532,3.875 14.318,4.091 14.054,4.091 L14.044,4.091 C13.78,4.091 13.566,3.875 13.566,3.61 L13.566,3.046 L13.005,3.046 C12.741,3.046 12.527,2.831 12.527,2.566 L12.527,2.557 C12.527,2.291 12.741,2.076 13.005,2.076 L13.566,2.076 L13.566,1.512 C13.566,1.247 13.78,1.032 14.044,1.032 L14.054,1.032 C14.318,1.032 14.532,1.248 14.532,1.512 L14.532,2.076 L15.093,2.076 C15.357,2.076 15.571,2.291 15.571,2.557 L15.571,2.566 Z" id="Shape"/>
        </g>
        <g id="右上角-诊所中心-copy" transform="translate(2.000000, 425.000000)" fill="#258FF1" fill-rule="nonzero">
            <path d="M19.932,2.229875 C18.979125,0.2808125 16.636125,-0.5235625 14.6953125,0.4355 L14.6251875,0.4705625 C12.6864375,1.4275625 11.88825,3.785 12.841125,5.732 L15.2955,10.7541875 C15.324375,12.674375 15.118125,14.58425 14.466375,16.49 L7.4930625,2.229875 C6.5401875,0.2808125 4.195125,-0.5235625 2.256375,0.4355 L2.1883125,0.4705625 C0.2475,1.4275625 -0.5506875,3.785 0.4021875,5.732 L7.635375,20.520125 C8.58825,22.4691875 10.93125,23.2735625 12.87,22.3145 L12.9421875,22.2794375 C13.319625,22.0938125 13.6516875,21.8525 13.9363125,21.5740625 C14.9139375,20.68925 16.4030625,18.7443125 17.2486875,14.7471875 L20.0743125,20.520125 C21.0271875,22.4691875 23.3701875,23.2735625 25.3089375,22.3145 L25.3790625,22.2794375 C27.3178125,21.3224375 28.116,18.965 27.163125,17.018 L19.932,2.229875 Z M28.978125,0.03125 C26.7568125,0.03125 24.95625,1.8400625 24.95625,4.07375 C24.95625,4.51925 25.117125,5.1565625 25.372875,5.8949375 C25.5894375,6.5219375 25.8534375,7.130375 26.1463125,7.724375 L28.920375,13.37975 C28.9306875,13.4024375 28.9554375,13.416875 28.9801875,13.416875 C29.0049375,13.416875 29.027625,13.4024375 29.04,13.37975 L31.8140625,7.724375 C32.104875,7.1283125 32.368875,6.5219375 32.5854375,5.8949375 C32.839125,5.1565625 33,4.51925 33,4.07375 C33,1.8400625 31.1994375,0.03125 28.978125,0.03125 Z M32.1151875,4.292375 C32.1151875,4.8389375 31.6738125,5.282375 31.1293125,5.282375 L29.97225,5.282375 L29.97225,6.445625 C29.97225,6.9921875 29.530875,7.4376875 28.986375,7.4376875 L28.96575,7.4376875 C28.42125,7.4376875 27.979875,6.9921875 27.979875,6.445625 L27.979875,5.282375 L26.8228125,5.282375 C26.2783125,5.282375 25.8369375,4.8389375 25.8369375,4.292375 L25.8369375,4.2738125 C25.8369375,3.7251875 26.2783125,3.28175 26.8228125,3.28175 L27.979875,3.28175 L27.979875,2.1185 C27.979875,1.5719375 28.42125,1.1285 28.96575,1.1285 L28.986375,1.1285 C29.530875,1.1285 29.97225,1.574 29.97225,2.1185 L29.97225,3.28175 L31.1293125,3.28175 C31.6738125,3.28175 32.1151875,3.7251875 32.1151875,4.2738125 L32.1151875,4.292375 Z" id="Shape"/>
        </g>
        <g id="右上角-诊所中心-copy-2" transform="translate(2.000000, 450.000000)" fill="#14ACC3" fill-rule="nonzero">
            <path d="M19.932,2.229875 C18.979125,0.2808125 16.636125,-0.5235625 14.6953125,0.4355 L14.6251875,0.4705625 C12.6864375,1.4275625 11.88825,3.785 12.841125,5.732 L15.2955,10.7541875 C15.324375,12.674375 15.118125,14.58425 14.466375,16.49 L7.4930625,2.229875 C6.5401875,0.2808125 4.195125,-0.5235625 2.256375,0.4355 L2.1883125,0.4705625 C0.2475,1.4275625 -0.5506875,3.785 0.4021875,5.732 L7.635375,20.520125 C8.58825,22.4691875 10.93125,23.2735625 12.87,22.3145 L12.9421875,22.2794375 C13.319625,22.0938125 13.6516875,21.8525 13.9363125,21.5740625 C14.9139375,20.68925 16.4030625,18.7443125 17.2486875,14.7471875 L20.0743125,20.520125 C21.0271875,22.4691875 23.3701875,23.2735625 25.3089375,22.3145 L25.3790625,22.2794375 C27.3178125,21.3224375 28.116,18.965 27.163125,17.018 L19.932,2.229875 Z M28.978125,0.03125 C26.7568125,0.03125 24.95625,1.8400625 24.95625,4.07375 C24.95625,4.51925 25.117125,5.1565625 25.372875,5.8949375 C25.5894375,6.5219375 25.8534375,7.130375 26.1463125,7.724375 L28.920375,13.37975 C28.9306875,13.4024375 28.9554375,13.416875 28.9801875,13.416875 C29.0049375,13.416875 29.027625,13.4024375 29.04,13.37975 L31.8140625,7.724375 C32.104875,7.1283125 32.368875,6.5219375 32.5854375,5.8949375 C32.839125,5.1565625 33,4.51925 33,4.07375 C33,1.8400625 31.1994375,0.03125 28.978125,0.03125 Z M32.1151875,4.292375 C32.1151875,4.8389375 31.6738125,5.282375 31.1293125,5.282375 L29.97225,5.282375 L29.97225,6.445625 C29.97225,6.9921875 29.530875,7.4376875 28.986375,7.4376875 L28.96575,7.4376875 C28.42125,7.4376875 27.979875,6.9921875 27.979875,6.445625 L27.979875,5.282375 L26.8228125,5.282375 C26.2783125,5.282375 25.8369375,4.8389375 25.8369375,4.292375 L25.8369375,4.2738125 C25.8369375,3.7251875 26.2783125,3.28175 26.8228125,3.28175 L27.979875,3.28175 L27.979875,2.1185 C27.979875,1.5719375 28.42125,1.1285 28.96575,1.1285 L28.986375,1.1285 C29.530875,1.1285 29.97225,1.574 29.97225,2.1185 L29.97225,3.28175 L31.1293125,3.28175 C31.6738125,3.28175 32.1151875,3.7251875 32.1151875,4.2738125 L32.1151875,4.292375 Z" id="Shape"/>
        </g>
        <g id="右上角-诊所中心-copy-3" transform="translate(2.000000, 475.000000)" fill="#EA984F" fill-rule="nonzero">
            <path d="M19.932,2.229875 C18.979125,0.2808125 16.636125,-0.5235625 14.6953125,0.4355 L14.6251875,0.4705625 C12.6864375,1.4275625 11.88825,3.785 12.841125,5.732 L15.2955,10.7541875 C15.324375,12.674375 15.118125,14.58425 14.466375,16.49 L7.4930625,2.229875 C6.5401875,0.2808125 4.195125,-0.5235625 2.256375,0.4355 L2.1883125,0.4705625 C0.2475,1.4275625 -0.5506875,3.785 0.4021875,5.732 L7.635375,20.520125 C8.58825,22.4691875 10.93125,23.2735625 12.87,22.3145 L12.9421875,22.2794375 C13.319625,22.0938125 13.6516875,21.8525 13.9363125,21.5740625 C14.9139375,20.68925 16.4030625,18.7443125 17.2486875,14.7471875 L20.0743125,20.520125 C21.0271875,22.4691875 23.3701875,23.2735625 25.3089375,22.3145 L25.3790625,22.2794375 C27.3178125,21.3224375 28.116,18.965 27.163125,17.018 L19.932,2.229875 Z M28.978125,0.03125 C26.7568125,0.03125 24.95625,1.8400625 24.95625,4.07375 C24.95625,4.51925 25.117125,5.1565625 25.372875,5.8949375 C25.5894375,6.5219375 25.8534375,7.130375 26.1463125,7.724375 L28.920375,13.37975 C28.9306875,13.4024375 28.9554375,13.416875 28.9801875,13.416875 C29.0049375,13.416875 29.027625,13.4024375 29.04,13.37975 L31.8140625,7.724375 C32.104875,7.1283125 32.368875,6.5219375 32.5854375,5.8949375 C32.839125,5.1565625 33,4.51925 33,4.07375 C33,1.8400625 31.1994375,0.03125 28.978125,0.03125 Z M32.1151875,4.292375 C32.1151875,4.8389375 31.6738125,5.282375 31.1293125,5.282375 L29.97225,5.282375 L29.97225,6.445625 C29.97225,6.9921875 29.530875,7.4376875 28.986375,7.4376875 L28.96575,7.4376875 C28.42125,7.4376875 27.979875,6.9921875 27.979875,6.445625 L27.979875,5.282375 L26.8228125,5.282375 C26.2783125,5.282375 25.8369375,4.8389375 25.8369375,4.292375 L25.8369375,4.2738125 C25.8369375,3.7251875 26.2783125,3.28175 26.8228125,3.28175 L27.979875,3.28175 L27.979875,2.1185 C27.979875,1.5719375 28.42125,1.1285 28.96575,1.1285 L28.986375,1.1285 C29.530875,1.1285 29.97225,1.574 29.97225,2.1185 L29.97225,3.28175 L31.1293125,3.28175 C31.6738125,3.28175 32.1151875,3.7251875 32.1151875,4.2738125 L32.1151875,4.292375 Z" id="Shape"/>
        </g>
        <g id="右上角-授权协议" transform="translate(2.000000, 366.000000)" fill="#323333">
            <path d="M7,0 L0,3 C0,3 0,4.968 0,9.454 C0,13.63 7,16 7,16 C7,16 14,13.63 14,9.454 C14,4.968 14,3 14,3 L7,0 Z M7.393,9.804 L6.189,11.003 L4.985,9.804 L3.004,7.827 L4.208,6.628 L6.19,8.604 L9.801,5.003 L11.005,6.203 L7.393,9.804 Z" id="Shape"/>
        </g>
        <g id="右上角-退出" transform="translate(1.000000, 385.000000)" fill="#323333">
            <path d="M8,9 C8.829,9 9.5,8.328 9.5,7.5 L9.5,1.5 C9.5,0.672 8.829,0 8,0 C7.171,0 6.5,0.672 6.5,1.5 L6.5,7.5 C6.5,8.328 7.171,9 8,9 Z M12.237,2.337 C12.054,2.134 11.795,2 11.5,2 C10.948,2 10.5,2.447 10.5,3 C10.5,3.391 10.73,3.721 11.057,3.885 L11.04,3.918 C12.522,4.904 13.5,6.587 13.5,8.5 C13.5,11.537 11.038,14 8,14 C4.962,14 2.5,11.537 2.5,8.5 C2.5,6.587 3.478,4.904 4.959,3.918 L4.943,3.885 C5.27,3.721 5.5,3.391 5.5,3 C5.5,2.447 5.052,2 4.5,2 C4.205,2 3.946,2.134 3.763,2.337 C1.799,3.689 0.5,5.936 0.5,8.5 C0.5,12.643 3.858,16 8,16 C12.142,16 15.5,12.643 15.5,8.5 C15.5,5.936 14.201,3.689 12.237,2.337 Z" id="Shape"/>
        </g>
        <g id="初始化" transform="translate(1.000000, 405.000000)" fill="#323333" fill-rule="nonzero">
            <path d="M5.57361544,3.73274071 C5.57361544,2.19934242 4.31649768,0.955089433 2.78680772,0.955089433 C1.24835463,0.955089433 0,2.208095 0,3.73274071 C0,4.47754927 0.29889821,5.16099857 0.782426155,5.66046122 C0.650558226,6.20372328 0.580233542,6.77327955 0.580233542,7.36911181 C0.580233542,10.0153284 1.97803727,12.3373529 4.07912443,13.6341761 L4.64177678,11.3471984 C3.49892748,10.392109 2.77804459,8.96385113 2.77804459,7.36911181 C2.77804459,7.07994825 2.80440719,6.79078472 2.84835096,6.5191628 C4.34284198,6.49288681 5.57361544,5.26615723 5.57361544,3.73274071 Z M7.96483766,2.18181902 C8.93187524,2.18181902 9.83735129,2.44468833 10.6109777,2.90031512 C10.4879095,3.21575466 10.4263846,3.5487176 10.4263846,3.907993 C10.4263846,5.44140952 11.6835023,6.68564428 13.2131923,6.68564428 C14.7428456,6.68564428 16,5.43262048 16,3.89922219 C16,2.3658239 14.7516454,1.12157091 13.2131923,1.12157091 C12.8527508,1.12157091 12.5098906,1.19166453 12.1846297,1.31434661 C10.9890186,0.481921018 9.52967166,0 7.95605622,0 C6.89231304,0 5.88131338,0.227822516 4.9670376,0.630879079 L6.24177312,2.47973514 C6.78680771,2.27818863 7.36702295,2.181819 7.96483766,2.18181902 Z M13.1692302,7.60570514 C13.0900875,9.49837883 11.9824188,11.128165 10.4000037,11.9605723 C9.94285663,11.0580531 8.99340022,10.4446792 7.91207585,10.4446792 C6.37360447,10.4446792 5.12526813,11.697703 5.12526813,13.2223487 C5.12526813,14.755747 6.38242249,16 7.91207585,16 C9.07250632,16 10.0571251,15.2990091 10.4879095,14.300102 C13.3362605,13.2749189 15.3670412,10.5498379 15.3670412,7.36911181 C15.3670412,7.2026121 15.3582415,7.04490145 15.3494601,6.87841997 L13.1692302,7.60570514 Z" id="Shape"/>
        </g>
        <g id="切换-2" transform="translate(3.000000, 122.000000)" fill="#2F3232" fill-rule="nonzero">
            <path d="M8,0 C3.58181167,0 0,3.58145363 0,8 C0,12.4181883 3.58181167,16 8,16 C12.4181883,16 16,12.4181883 16,8 C16,3.58145363 12.4181883,0 8,0 Z M12.3225922,9.70032223 L5.02291443,9.70032223 L6.97959184,12.056212 C7.12889366,12.235947 7.10383101,12.5030433 6.92409595,12.6523451 C6.84461153,12.7182241 6.74937343,12.7504475 6.6537773,12.7504475 C6.5320444,12.7504475 6.41138561,12.698174 6.32796276,12.5972073 L3.21911923,8.85320444 L12.3225922,8.85320444 C12.556391,8.85320444 12.7465091,9.04296455 12.7465091,9.27712137 C12.7465091,9.5112782 12.556391,9.70032223 12.3225922,9.70032223 Z M3.67669173,7.14572145 C3.44289295,7.14572145 3.25313283,6.95631937 3.25313283,6.72216255 C3.25313283,6.48836377 3.44253491,6.29860365 3.67669173,6.29860365 L10.9767275,6.29860365 L9.0207662,3.94235589 C8.87146438,3.76297888 8.89581096,3.49588256 9.07554601,3.3462227 C9.25528106,3.19727891 9.52273541,3.22162549 9.67203724,3.40171858 L12.7808808,7.14536341 L3.67669173,7.14536341 L3.67669173,7.14572145 Z" id="Shape"/>
        </g>
        <path d="M17.182419,527.34265 C20.3950732,521.548971 25.6076739,521.55593 28.816469,527.34265 L41.6627894,550.509617 C44.8754436,556.303295 42.100104,561 35.4713286,561 L10.5275594,561 C3.89545586,561 1.12730356,556.296336 4.33609865,550.509617 L17.182419,527.34265 Z M24.6666783,545.256466 L25.6086451,540.135128 C25.8416369,538.413015 25.9586328,537.187934 25.9586328,536.456886 C25.9586328,535.676835 25.6846425,535.072795 25.1366617,534.643767 C24.588681,534.214738 23.9147047,534.000724 23.1127329,534.000724 C22.9937371,534.000724 22.739746,534.032726 22.3447599,534.095731 C21.6437846,534.150734 21.1008037,534.328746 20.7128173,534.635766 C20.3258309,534.941786 20.1048387,535.411817 20.0448408,536.045859 C19.9868428,536.352879 19.9588438,536.542892 19.9588438,536.616897 C19.9588438,536.933918 19.9918427,537.418949 20.06784,538.074993 C20.2118349,539.120061 20.5048246,540.795172 20.9428092,543.100324 L22.1907653,548.996712 C22.9937371,548.985711 23.5497175,549.018713 23.8567067,548.996712 C24.161696,548.024648 24.4316865,546.744564 24.6666783,545.256466 Z M20.4588262,553.502009 C20.4588262,554.883099 21.5777869,556.002173 22.9587383,556.002173 C24.3386898,556.002173 25.4586504,554.883099 25.4586504,553.502009 C25.4586504,552.120918 24.3386898,551.001844 22.9587383,551.001844 C21.5777869,551.001844 20.4588262,552.120918 20.4588262,553.502009 Z" id="Combined-Shape" fill="#FCBA04"/>
        <g id="new-copy" transform="translate(6.000000, 566.000000)" fill="#FF0000" fill-rule="nonzero">
            <path d="M18.39,0 L1.61,0 C0.720714286,0 0,0.719406274 0,1.60707804 L0,9.39292196 C0,10.2805937 0.720714286,11 1.61,11 L18.39,11 C19.2792857,11 20,10.2805937 20,9.39292196 L20,1.60707804 C20,0.719406274 19.2792857,0 18.39,0 Z M5.78214286,8.03039927 L4.63357143,8.03039927 L2.45428571,3.80807623 L2.45428571,8.00758361 L1.76714286,8.00758361 L1.76714286,3.01451906 L2.78428571,3.01451906 L5.02642857,7.3445035 L5.09428571,7.3445035 L5.09428571,2.9917034 L5.78142857,2.9917034 L5.78142857,8.03039927 L5.78214286,8.03039927 Z M10.3364286,5.14849624 L10.3364286,5.83439201 L7.53857143,5.83581799 C7.53928571,5.88715323 7.54,5.93421053 7.54,5.97770288 L7.54,5.98126782 C7.54285714,6.8618097 7.82285714,7.30814104 8.37214286,7.30814104 L10.3364286,7.30814104 L10.3364286,7.99403682 L8.37214286,7.99403682 C7.93928571,7.99403682 7.57071429,7.83147524 7.30571429,7.52346383 C7.00785714,7.176951 6.85571429,6.65932072 6.85285714,5.98483277 C6.84928571,5.72673062 6.84714286,5.33601244 6.84714286,4.79057558 C6.84714286,3.6554965 7.63714286,3.11790251 8.37642857,2.99312938 L8.40857143,2.98813845 C8.715,2.95747991 10.1757143,2.9781566 10.3414286,2.98029557 L10.3314286,3.66619134 C9.70785714,3.65692248 8.71357143,3.65050557 8.48857143,3.66975629 C8.19928571,3.71895255 7.53428571,3.92714545 7.53428571,4.79057558 C7.53428571,4.91891366 7.53428571,5.03798289 7.53428571,5.14920923 L10.3364286,5.14849624 Z M16.7828571,8.03039927 L15.7614286,8.03039927 L14.7414286,4.01484314 L13.6057143,8.03039927 L12.5542857,8.03039927 L11.0885714,2.99455535 L11.8378571,2.99455535 L13.1335714,7.1163469 L13.1764286,7.09353124 L14.3192857,2.98029557 L15.1864286,2.98029557 L16.2871429,7.310993 L17.6307143,2.99312938 L18.3542857,2.99312938 L16.7828571,8.03039927 Z" id="Shape"/>
        </g>
        <g id="切换-6" transform="translate(5.000000, 502.000000)" fill-rule="nonzero">
            <path d="M11.2199355,3.96777162 C11.1023072,3.86152162 11.0118238,3.86152162 10.8941955,3.86152162 L2.66021052,3.86152162 L10.8851471,3.86152162 C11.0027755,3.86152162 11.1294522,3.86152162 11.2199355,3.96777162 Z M11.6437701,4.08873495 C11.5978518,4.08873495 11.5978518,3.98248495 11.5366273,3.98248495 C11.5978518,3.98248495 11.6437701,4.08873495 11.6437701,4.08873495 Z M12.3042986,4.59660646 C12.2721557,4.56869184 12.2292986,4.50355774 12.1971557,4.47564313 C12.2400129,4.53147236 12.2721557,4.56869184 12.3042986,4.59660646 Z M13.608696,14.2550629 L12.4686058,14.2550629 L12.4686058,5.27586207 C12.4686058,5.15489874 12.4686058,5.06185003 12.4414608,4.9408867 C12.4686058,5.03393541 12.4686058,5.15489874 12.4686058,5.27586207 L12.4686058,14.2643678 L13.608696,14.2643678 L13.608696,14.2550629 Z M13.8801461,14.1713191 C13.8530011,14.2168548 13.7896627,14.2168548 13.7625177,14.2775691 C13.7896627,14.2168548 13.8439527,14.2168548 13.8801461,14.1713191 Z M14.5678195,0.372194855 C14.2692245,0.130268199 13.8801461,0 13.4910677,0 L3.43836734,0 C3.02214393,0 2.63306552,0.120963328 2.36161546,0.372194855 C2.06302041,0.651340996 1.8820537,1.01423098 1.8820537,1.38642583 L1.8820537,3.83360701 L1.58345864,3.83360701 C1.16723523,3.83360701 0.77815682,3.95457033 0.506706766,4.20580186 C0.180966702,4.51286262 0,4.8757526 0,5.27586207 L0,15.6135742 C0,16.0136836 0.180966702,16.3765736 0.479561761,16.6278051 C0.77815682,16.8697318 1.16723523,17 1.55631364,17 L10.8580021,17 C11.2742255,17 11.663304,16.8790367 11.934754,16.6278051 C12.2333491,16.348659 12.4414608,15.985769 12.4414608,15.6135742 L12.4414608,15.120416 L13.4367776,15.120416 C13.8530011,15.120416 14.2420795,14.9994527 14.5135295,14.7482211 C14.8121246,14.469075 14.9930913,14.106185 14.9930913,13.7339901 L14.9930913,1.41434045 C15.038333,1.01423098 14.8573663,0.651340996 14.5678195,0.372194855 Z M14.0882578,14.0131363 L14.0611128,14.0410509 C14.0339678,14.0689655 13.9977744,14.106185 13.9706294,14.106185 C13.9706294,14.106185 13.9434844,14.106185 13.9434844,14.1340996 C13.9434844,14.1620142 13.9163394,14.1340996 13.9163394,14.1620142 C13.9163394,14.1620142 13.8891944,14.1620142 13.8891944,14.1899288 C13.8349044,14.2178435 13.771566,14.2178435 13.744421,14.2550629 L13.6720344,14.2550629 C13.6448893,14.2550629 13.608696,14.2550629 13.581551,14.2829776 L12.4414608,14.2829776 L12.4414608,5.27586207 C12.4414608,5.15489874 12.4414608,5.06185003 12.4143158,4.9408867 C12.4143158,4.91297209 12.4143158,4.91297209 12.3871708,4.8757526 C12.3871708,4.84783799 12.3871708,4.84783799 12.3600258,4.8106185 C12.3600258,4.78270389 12.3600258,4.78270389 12.3328808,4.7454844 C12.3328808,4.71756979 12.3057358,4.71756979 12.3057358,4.6803503 C12.2785907,4.65243569 12.2785907,4.6152162 12.2423974,4.58730159 C12.2152524,4.55938697 12.1790591,4.49425287 12.1519141,4.46633826 C12.124769,4.40120416 12.0614307,4.37328955 12.0342857,4.31746032 C12.0071407,4.2895457 11.9709474,4.25232622 11.9166573,4.2244116 L11.853319,4.1592775 L11.826174,4.13136289 C11.799029,4.13136289 11.799029,4.10344828 11.7628356,4.10344828 C11.6994973,4.07553366 11.6180623,4.01039956 11.5547239,3.98248495 C11.5275789,3.98248495 11.5275789,3.95457033 11.4913856,3.95457033 C11.4642406,3.95457033 11.4280472,3.92665572 11.4009022,3.92665572 C11.3104189,3.92665572 11.2832739,3.89874111 11.2289839,3.89874111 L11.1385005,3.89874111 C11.0208722,3.87082649 10.9303888,3.87082649 10.8127605,3.87082649 L2.66021052,3.87082649 L2.66021052,1.41434045 C2.66021052,1.34920635 2.66021052,1.29337712 2.68735553,1.22824302 C2.71450053,1.16310892 2.75069387,1.13519431 2.80498388,1.07936508 C2.94975725,0.930487137 3.16691729,0.837438424 3.42931901,0.837438424 L13.4548743,0.837438424 C13.8710977,0.837438424 14.2330311,1.07936508 14.2330311,1.38642583 L14.2330311,13.6781609 C14.2330311,13.7991242 14.1696928,13.9200876 14.0882578,14.0131363 Z" id="Shape" fill="#323333"/>
            <path d="M5.15353858,8 C4.88964414,8 4.67373051,8.21625951 4.67373051,8.48057669 C4.67373051,8.60873048 4.72970812,8.72887465 4.80967613,8.81698038 C4.88964414,8.9050861 5.01759296,8.95314377 5.14554178,8.95314377 L7.36865254,8.95314377 L4.13794482,12.1890268 C3.95401839,12.3732479 3.95401839,12.6776131 4.13794482,12.8618342 C4.32187125,13.0460553 4.6257497,13.0460553 4.80967613,12.8618342 L8.04038385,9.62595114 L8.04038385,11.8526231 C8.04038385,12.1169403 8.25629748,12.3331998 8.52019192,12.3331998 C8.78408637,12.3331998 9,12.1169403 9,11.8526231 L9,8.48057669 C9,8.21625951 8.78408637,8 8.52019192,8 L5.15353858,8 Z" id="Shape" fill="#FFFFFF"/>
        </g>
    </g>
</svg>